# xmcd
# 
# Track frame offsets:
#     150
#     16357
#     34224
#     59079
#     78185
#     96749
#     116695
#     139057
#     156718
#     172287
#     196000
#     218818
#     237951
#     260811
# 
# Disc length: 3732
# 
# Revision: 0
# Processed by: cddbd v1.5.2PL0 Copyright (c) Steve Scherf et al.
# Submitted via: fre:ac v1.0.17
# 
DISCID=d70e920e
DTITLE=Ricardo Arjona - Sin daños a terceros
DYEAR=1998
DGENRE=Latin
TTITLE0=Te guste o no
TTITLE1=Mentiroso
TTITLE2=Olvidarte
TTITLE3=Desnuda
TTITLE4=Loco
TTITLE5=Dime que no
TTITLE6=Buenas noches don David
TTITLE7=No estoy solo
TTITLE8=Vientre de cuna
TTITLE9=Hoy es un buen día para empezar
TTITLE10=Millonario de luz
TTITLE11=Con una estrella
TTITLE12=A siete metros
TTITLE13=Tarde (sin daños a terceros)
EXTD=YEAR: 1998 ID3G: 86
EXTT0=
EXTT1=
EXTT2=
EXTT3=
EXTT4=
EXTT5=
EXTT6=
EXTT7=
EXTT8=
EXTT9=
EXTT10=
EXTT11=
EXTT12=
EXTT13=
PLAYORDER=
